<svg xmlns="http://www.w3.org/2000/svg" width="1024" height="1024" viewBox="0 0 1024 1024" version="1.1"><path d="M 416.112 148.250 C 415.651 149.488, 360.055 308.419, 292.565 501.432 C 182.904 815.049, 169.989 852.610, 171.097 854.682 L 172.338 857 248.920 857 L 325.502 857 346.501 794.250 L 367.500 731.500 505.165 731.246 L 642.831 730.993 663.749 793.746 L 684.667 856.500 761.961 856.500 C 838.182 856.500, 839.273 856.472, 840.477 854.500 C 841.533 852.771, 824.931 804.815, 718.099 500.998 C 650.120 307.672, 594.177 148.710, 593.781 147.748 C 593.105 146.103, 587.894 146, 505.007 146 L 416.950 146 416.112 148.250 M 459.856 457.746 C 434.812 532.411, 414.500 593.837, 414.719 594.250 C 414.939 594.663, 456.090 595, 506.166 595 C 578.583 595, 597.120 594.744, 596.754 593.750 C 596.501 593.063, 576.147 531.975, 551.522 458 C 526.898 384.025, 506.445 323.161, 506.071 322.746 C 505.698 322.332, 484.901 383.082, 459.856 457.746" stroke="none" fill="#fbfbfb" fill-rule="evenodd"/><path d="M 168 1.709 C 158.527 2.791, 139.197 7.352, 128.479 11.034 C 99.320 21.052, 75.339 36.452, 53.352 59.280 C 28.233 85.359, 12.243 115.822, 4.236 152.850 L 1.500 165.500 1.500 512.500 L 1.500 859.500 4.236 872.150 C 12.243 909.178, 28.233 939.641, 53.352 965.720 C 80.972 994.396, 113.117 1012.165, 152.979 1020.791 L 165.500 1023.500 512.500 1023.500 L 859.500 1023.500 872.021 1020.791 C 911.883 1012.165, 944.028 994.396, 971.648 965.720 C 996.767 939.641, 1012.757 909.178, 1020.764 872.150 L 1023.500 859.500 1023.500 512.500 L 1023.500 165.500 1020.764 152.850 C 1012.757 115.822, 996.767 85.359, 971.648 59.280 C 944.218 30.801, 912.503 13.187, 872.533 4.231 L 860.500 1.535 516 1.422 C 326.525 1.360, 169.925 1.489, 168 1.709 M 416.112 148.250 C 415.651 149.488, 360.055 308.419, 292.565 501.432 C 182.904 815.049, 169.989 852.610, 171.097 854.682 L 172.338 857 248.920 857 L 325.502 857 346.501 794.250 L 367.500 731.500 505.165 731.246 L 642.831 730.993 663.749 793.746 L 684.667 856.500 761.961 856.500 C 838.182 856.500, 839.273 856.472, 840.477 854.500 C 841.533 852.771, 824.931 804.815, 718.099 500.998 C 650.120 307.672, 594.177 148.710, 593.781 147.748 C 593.105 146.103, 587.894 146, 505.007 146 L 416.950 146 416.112 148.250 M 459.856 457.746 C 434.812 532.411, 414.500 593.837, 414.719 594.250 C 414.939 594.663, 456.090 595, 506.166 595 C 578.583 595, 597.120 594.744, 596.754 593.750 C 596.501 593.063, 576.147 531.975, 551.522 458 C 526.898 384.025, 506.445 323.161, 506.071 322.746 C 505.698 322.332, 484.901 383.082, 459.856 457.746" stroke="none" fill="#1c5cd4" fill-rule="evenodd"/></svg>